HIERARCHY
ROOT mixamorig:Hips
{
	OFFSET 0.000000 104.274902 0.000000
	CHANNELS 6 Xposition Yposition Zposition Xrotation Yrotation Zrotation
	JOINT mixamorig:Spine
	{
		OFFSET 0.000000 10.181549 0.131524
		CHANNELS 6 Xposition Yposition Zposition Xrotation Yrotation Zrotation
		JOINT mixamorig:Spine1
		{
			OFFSET 0.000000 9.893990 -1.470706
			CHANNELS 3 Xrotation Yrotation Zrotation
			JOINT mixamorig:Spine2
			{
				OFFSET 0.000000 9.220787 -1.370637
				CHANNELS 3 Xrotation Yrotation Zrotation
				JOINT mixamorig:Neck
				{
					OFFSET 0.000000 16.740372 -2.049022
					CHANNELS 6 Xposition Yposition Zposition Xrotation Yrotation Zrotation
					JOINT mixamorig:Head
					{
						OFFSET 0.000000 9.617859 1.684976
						CHANNELS 6 Xposition Yposition Zposition Xrotation Yrotation Zrotation
						JOINT mixamorig:HeadTop_End
						{
							OFFSET 0.000000 22.037384 7.501072
							CHANNELS 6 Xposition Yposition Zposition Xrotation Yrotation Zrotation
							End Site
							{
								OFFSET 0.000000 23.106567 -2.828246
							}
						}
					}
				}
				JOINT mixamorig:RightShoulder
				{
					OFFSET -4.570000 11.014877 -2.160840
					CHANNELS 6 Xposition Yposition Zposition Xrotation Yrotation Zrotation
					JOINT mixamorig:RightArm
					{
						OFFSET -10.592867 -0.524796 -2.232105
						CHANNELS 3 Xrotation Yrotation Zrotation
						JOINT mixamorig:RightForeArm
						{
							OFFSET -27.841497 0.000000 -0.000002
							CHANNELS 3 Xrotation Yrotation Zrotation
							JOINT mixamorig:RightHand
							{
								OFFSET -28.328812 0.000000 -0.000001
								CHANNELS 3 Xrotation Yrotation Zrotation
								JOINT mixamorig:RightHandThumb1
								{
									OFFSET -2.464798 -1.573990 2.681911
									CHANNELS 6 Xposition Yposition Zposition Xrotation Yrotation Zrotation
									JOINT mixamorig:RightHandThumb2
									{
										OFFSET -3.244781 -1.873383 1.873376
										CHANNELS 3 Xrotation Yrotation Zrotation
										JOINT mixamorig:RightHandThumb3
										{
											OFFSET -2.646263 -1.527817 1.527818
											CHANNELS 6 Xposition Yposition Zposition Xrotation Yrotation Zrotation
											JOINT mixamorig:RightHandThumb4
											{
												OFFSET -1.994591 -1.151581 1.151575
												CHANNELS 6 Xposition Yposition Zposition Xrotation Yrotation Zrotation
												End Site
												{
													OFFSET -1.860176 -1.142715 1.365483
												}
											}
										}
									}
								}
								JOINT mixamorig:RightHandIndex1
								{
									OFFSET -9.108299 -0.517883 2.259803
									CHANNELS 6 Xposition Yposition Zposition Xrotation Yrotation Zrotation
									JOINT mixamorig:RightHandIndex2
									{
										OFFSET -3.699997 0.000000 0.000000
										CHANNELS 3 Xrotation Yrotation Zrotation
										JOINT mixamorig:RightHandIndex3
										{
											OFFSET -2.850006 0.000000 0.000000
											CHANNELS 3 Xrotation Yrotation Zrotation
											JOINT mixamorig:RightHandIndex4
											{
												OFFSET -2.772194 0.000000 0.000000
												CHANNELS 3 Xrotation Yrotation Zrotation
												End Site
												{
													OFFSET -2.772202 0.000000 -0.000484
												}
											}
										}
									}
								}
								JOINT mixamorig:RightHandMiddle1
								{
									OFFSET -9.532501 0.000000 -0.000000
									CHANNELS 6 Xposition Yposition Zposition Xrotation Yrotation Zrotation
									JOINT mixamorig:RightHandMiddle2
									{
										OFFSET -3.699997 0.000000 0.000000
										CHANNELS 3 Xrotation Yrotation Zrotation
										JOINT mixamorig:RightHandMiddle3
										{
											OFFSET -2.949997 0.000000 0.000000
											CHANNELS 3 Xrotation Yrotation Zrotation
											JOINT mixamorig:RightHandMiddle4
											{
												OFFSET -2.946594 0.000000 0.000000
												CHANNELS 3 Xrotation Yrotation Zrotation
												End Site
												{
													OFFSET -2.946602 0.000000 -0.000982
												}
											}
										}
									}
								}
								JOINT mixamorig:RightHandRing1
								{
									OFFSET -9.103600 -0.043106 -1.865100
									CHANNELS 6 Xposition Yposition Zposition Xrotation Yrotation Zrotation
									JOINT mixamorig:RightHandRing2
									{
										OFFSET -3.379303 0.000000 0.000000
										CHANNELS 3 Xrotation Yrotation Zrotation
										JOINT mixamorig:RightHandRing3
										{
											OFFSET -2.889694 0.000000 0.000000
											CHANNELS 3 Xrotation Yrotation Zrotation
											JOINT mixamorig:RightHandRing4
											{
												OFFSET -2.638802 0.000000 0.000000
												CHANNELS 3 Xrotation Yrotation Zrotation
												End Site
												{
													OFFSET -2.638802 0.000000 0.004218
												}
											}
										}
									}
								}
								JOINT mixamorig:RightHandPinky1
								{
									OFFSET -8.076698 -0.486725 -3.806299
									CHANNELS 6 Xposition Yposition Zposition Xrotation Yrotation Zrotation
									JOINT mixamorig:RightHandPinky2
									{
										OFFSET -3.600006 0.000000 0.000000
										CHANNELS 3 Xrotation Yrotation Zrotation
										JOINT mixamorig:RightHandPinky3
										{
											OFFSET -2.099998 0.000000 0.000000
											CHANNELS 3 Xrotation Yrotation Zrotation
											JOINT mixamorig:RightHandPinky4
											{
												OFFSET -2.115791 0.000000 0.000000
												CHANNELS 3 Xrotation Yrotation Zrotation
												End Site
												{
													OFFSET -2.115799 0.000000 0.000174
												}
											}
										}
									}
								}
							}
						}
					}
				}
				JOINT mixamorig:LeftShoulder
				{
					OFFSET 4.570400 11.014679 -2.160816
					CHANNELS 6 Xposition Yposition Zposition Xrotation Yrotation Zrotation
					JOINT mixamorig:LeftArm
					{
						OFFSET 10.592373 -0.524597 -2.232116
						CHANNELS 3 Xrotation Yrotation Zrotation
						JOINT mixamorig:LeftForeArm
						{
							OFFSET 27.841488 0.000000 0.000001
							CHANNELS 3 Xrotation Yrotation Zrotation
							JOINT mixamorig:LeftHand
							{
								OFFSET 28.328808 0.000000 -0.000000
								CHANNELS 3 Xrotation Yrotation Zrotation
								JOINT mixamorig:LeftHandThumb1
								{
									OFFSET 2.466103 -1.576202 2.681698
									CHANNELS 6 Xposition Yposition Zposition Xrotation Yrotation Zrotation
									JOINT mixamorig:LeftHandThumb2
									{
										OFFSET 3.243317 -1.872528 1.872530
										CHANNELS 3 Xrotation Yrotation Zrotation
										JOINT mixamorig:LeftHandThumb3
										{
											OFFSET 2.647881 -1.528763 1.528754
											CHANNELS 6 Xposition Yposition Zposition Xrotation Yrotation Zrotation
											JOINT mixamorig:LeftHandThumb4
											{
												OFFSET 1.998924 -1.154083 1.154080
												CHANNELS 6 Xposition Yposition Zposition Xrotation Yrotation Zrotation
												End Site
												{
													OFFSET 1.884041 -1.149155 1.337651
												}
											}
										}
									}
								}
								JOINT mixamorig:LeftHandIndex1
								{
									OFFSET 9.109299 -0.518005 2.259900
									CHANNELS 6 Xposition Yposition Zposition Xrotation Yrotation Zrotation
									JOINT mixamorig:LeftHandIndex2
									{
										OFFSET 3.699997 0.000000 0.000000
										CHANNELS 3 Xrotation Yrotation Zrotation
										JOINT mixamorig:LeftHandIndex3
										{
											OFFSET 2.850006 0.000000 0.000000
											CHANNELS 3 Xrotation Yrotation Zrotation
											JOINT mixamorig:LeftHandIndex4
											{
												OFFSET 2.774895 0.000000 0.000000
												CHANNELS 3 Xrotation Yrotation Zrotation
												End Site
												{
													OFFSET 2.774902 0.000000 -0.000072
												}
											}
										}
									}
								}
								JOINT mixamorig:LeftHandMiddle1
								{
									OFFSET 9.533401 0.000000 0.000000
									CHANNELS 6 Xposition Yposition Zposition Xrotation Yrotation Zrotation
									JOINT mixamorig:LeftHandMiddle2
									{
										OFFSET 3.699997 0.000000 0.000000
										CHANNELS 3 Xrotation Yrotation Zrotation
										JOINT mixamorig:LeftHandMiddle3
										{
											OFFSET 2.949997 0.000000 0.000000
											CHANNELS 3 Xrotation Yrotation Zrotation
											JOINT mixamorig:LeftHandMiddle4
											{
												OFFSET 2.952896 0.000000 0.000000
												CHANNELS 3 Xrotation Yrotation Zrotation
												End Site
												{
													OFFSET 2.952904 0.000000 0.000165
												}
											}
										}
									}
								}
								JOINT mixamorig:LeftHandRing1
								{
									OFFSET 9.104500 -0.042999 -1.865101
									CHANNELS 6 Xposition Yposition Zposition Xrotation Yrotation Zrotation
									JOINT mixamorig:LeftHandRing2
									{
										OFFSET 3.149994 0.000000 0.000000
										CHANNELS 3 Xrotation Yrotation Zrotation
										JOINT mixamorig:LeftHandRing3
										{
											OFFSET 2.950005 0.000000 0.000000
											CHANNELS 3 Xrotation Yrotation Zrotation
											JOINT mixamorig:LeftHandRing4
											{
												OFFSET 2.644302 0.000000 0.000000
												CHANNELS 3 Xrotation Yrotation Zrotation
												End Site
												{
													OFFSET 2.644302 0.000000 0.000083
												}
											}
										}
									}
								}
								JOINT mixamorig:LeftHandPinky1
								{
									OFFSET 8.077805 -0.486893 -3.806302
									CHANNELS 6 Xposition Yposition Zposition Xrotation Yrotation Zrotation
									JOINT mixamorig:LeftHandPinky2
									{
										OFFSET 3.600006 0.000000 0.000000
										CHANNELS 3 Xrotation Yrotation Zrotation
										JOINT mixamorig:LeftHandPinky3
										{
											OFFSET 2.099998 0.000000 0.000000
											CHANNELS 3 Xrotation Yrotation Zrotation
											JOINT mixamorig:LeftHandPinky4
											{
												OFFSET 2.125496 0.000000 0.000000
												CHANNELS 3 Xrotation Yrotation Zrotation
												End Site
												{
													OFFSET 2.125504 0.000000 -0.001254
												}
											}
										}
									}
								}
							}
						}
					}
				}
			}
		}
	}
	JOINT mixamorig:RightUpLeg
	{
		OFFSET -8.207800 -6.751701 -1.599544
		CHANNELS 6 Xposition Yposition Zposition Xrotation Yrotation Zrotation
		JOINT mixamorig:RightLeg
		{
			OFFSET 0.000004 -44.370152 0.345934
			CHANNELS 3 Xrotation Yrotation Zrotation
			JOINT mixamorig:RightFoot
			{
				OFFSET 0.000004 -44.423664 -3.043535
				CHANNELS 3 Xrotation Yrotation Zrotation
				JOINT mixamorig:RightToeBase
				{
					OFFSET 0.000001 -8.728691 10.710592
					CHANNELS 3 Xrotation Yrotation Zrotation
					JOINT mixamorig:RightToe_End
					{
						OFFSET 0.000000 -0.000665 9.278101
						CHANNELS 3 Xrotation Yrotation Zrotation
						End Site
						{
							OFFSET 0.000000 -0.000665 9.278103
						}
					}
				}
			}
		}
	}
	JOINT mixamorig:LeftUpLeg
	{
		OFFSET 8.207800 -6.751701 -1.599544
		CHANNELS 6 Xposition Yposition Zposition Xrotation Yrotation Zrotation
		JOINT mixamorig:LeftLeg
		{
			OFFSET 0.000004 -44.370037 0.346940
			CHANNELS 3 Xrotation Yrotation Zrotation
			JOINT mixamorig:LeftFoot
			{
				OFFSET 0.000004 -44.423611 -3.044388
				CHANNELS 3 Xrotation Yrotation Zrotation
				JOINT mixamorig:LeftToeBase
				{
					OFFSET 0.000001 -8.728690 10.710592
					CHANNELS 3 Xrotation Yrotation Zrotation
					JOINT mixamorig:LeftToe_End
					{
						OFFSET 0.000000 -0.000680 9.278101
						CHANNELS 3 Xrotation Yrotation Zrotation
						End Site
						{
							OFFSET 0.000000 -0.000680 9.278101
						}
					}
				}
			}
		}
	}
}
MOTION
Frames: 4
Frame Time: 0.033333
-1.058898 88.188812 0.619153 -5.398693 -46.329231 0.072586 0.000001 10.181552 0.131524 9.493232 7.235761 -1.944573 2.187716 0.989894 -0.915630 2.202829 0.982772 -0.894153 0.000001 16.740381 -2.049025 0.084652 13.220565 4.538677 -0.000000 9.617861 1.684968 8.920926 20.138143 -4.130231 0.000001 22.037369 7.501072 -0.000000 -0.000000 0.000001 -4.570001 11.014862 -2.160841 3.036142 13.027203 -5.371424 -48.713787 27.172787 83.457105 0.000269 105.988280 -0.000239 -8.345326 17.548057 8.775660 -2.464796 -1.573983 2.681916 -7.341118 13.749645 7.412343 9.855779 -44.489107 -3.903165 -2.646267 -1.527801 1.527826 -0.115743 -14.513032 -28.973888 -1.994593 -1.151588 1.151587 -0.000001 -0.000005 -0.000002 -9.108294 -0.517873 2.259804 -0.124364 -2.384770 45.108871 4.500562 -4.654524 88.071178 1.723205 -3.618370 50.920133 0.000001 0.000002 0.000001 -9.532497 0.000006 0.000001 -0.761624 -2.932893 39.031061 5.133872 -4.632755 95.881670 1.739744 -3.631685 51.181350 -0.000001 0.000001 0.000003 -9.103579 -0.043107 -1.865104 0.154757 -4.068803 39.122675 6.509702 -4.273580 113.462863 2.549561 -4.153916 63.067330 -0.000000 0.000002 -0.000000 -8.076671 -0.486730 -3.806298 -4.198886 -8.025505 44.637762 4.252905 -4.639640 85.014839 6.935981 -4.062629 119.322285 -0.000000 0.000000 0.000000 4.570400 11.014700 -2.160816 1.117181 3.546355 -8.633326 -53.487013 4.935509 -51.503007 -0.000001 -106.358073 -0.000002 1.988490 -7.706201 -15.869268 2.466097 -1.576217 2.681687 -6.141114 -11.690718 -6.761674 9.914081 42.595512 3.409814 2.647881 -1.528747 1.528737 -0.422785 8.108090 27.509115 1.998921 -1.154098 1.154069 -0.000001 0.000001 0.000001 9.109273 -0.518008 2.259887 0.255271 3.378298 -45.814341 5.654090 5.847946 -88.067448 2.162103 4.544913 -50.866359 0.000001 0.000002 -0.000003 9.533401 0.000009 -0.000011 -0.461506 3.841666 -39.722676 6.450763 5.820561 -95.892885 2.182868 4.561667 -51.127712 0.000000 0.000002 -0.000003 9.104505 -0.042992 -1.865108 0.469687 4.966901 -39.799430 8.181089 5.368844 -113.503004 3.200476 5.218255 -63.022982 0.000001 -0.000000 0.000001 8.077806 -0.486884 -3.806309 -3.762462 9.063787 -45.253801 5.342518 5.829161 -85.005297 8.716893 5.103537 -119.369194 -0.000001 -0.000000 0.000001 -8.207799 -6.751688 -1.599543 -25.569298 -10.897061 -27.486910 57.437055 -9.745201 -7.683611 -24.524324 -5.586036 20.269898 -0.012993 0.000004 -0.000004 0.000000 -0.000000 -0.000000 8.207799 -6.751692 -1.599549 -31.716093 8.643064 16.402667 58.914603 -6.291108 4.271517 -24.207529 -8.307993 -13.607258 -1.594037 -0.000002 -0.000004 0.000000 -0.000000 0.000000 
-1.446282 88.956398 0.489710 -5.982154 -47.833109 -0.286969 0.000000 10.181551 0.131524 9.103590 6.177353 -2.179323 3.866579 1.028656 -1.616364 3.878493 1.024563 -1.597445 0.000001 16.740364 -2.049019 0.084199 11.891341 4.112021 0.000000 9.617837 1.684976 6.365167 23.874749 -5.174026 -0.000001 22.037384 7.501072 -0.000000 0.000000 0.000000 -4.570000 11.014864 -2.160839 4.405905 14.312157 -3.464385 -49.199502 31.070104 78.982709 0.000149 106.953864 -0.000112 -10.561107 17.735110 8.965331 -2.464792 -1.574009 2.681915 -7.341119 13.749645 7.412347 9.855774 -44.489110 -3.903160 -2.646267 -1.527804 1.527806 -0.115739 -14.513039 -28.973888 -1.994595 -1.151580 1.151587 -0.000000 -0.000005 0.000002 -9.108306 -0.517877 2.259809 -0.124365 -2.384774 45.108864 4.500560 -4.654524 88.071178 1.723206 -3.618373 50.920133 -0.000000 -0.000000 0.000001 -9.532497 0.000006 0.000006 -0.761626 -2.932896 39.031061 5.133872 -4.632756 95.881670 1.739747 -3.631688 51.181353 -0.000001 -0.000001 0.000005 -9.103581 -0.043111 -1.865098 0.154757 -4.068805 39.122675 6.509707 -4.273580 113.462863 2.549562 -4.153915 63.067330 0.000002 0.000002 0.000003 -8.076700 -0.486730 -3.806290 -4.198886 -8.025507 44.637759 4.252907 -4.639638 85.014846 6.935980 -4.062627 119.322285 0.000001 0.000000 0.000001 4.570398 11.014674 -2.160813 0.508169 2.262785 -7.341381 -47.088212 7.291202 -49.486927 0.000003 -111.942375 0.000024 -0.143372 -6.079768 -13.692974 2.466102 -1.576204 2.681705 -6.141114 -11.690717 -6.761669 9.914082 42.595512 3.409810 2.647869 -1.528751 1.528747 -0.422782 8.108100 27.509116 1.998917 -1.154058 1.154082 -0.000004 -0.000001 -0.000000 9.109272 -0.518008 2.259897 0.255270 3.378300 -45.814341 5.654090 5.847946 -88.067448 2.162102 4.544913 -50.866359 0.000002 -0.000002 0.000003 9.533401 0.000005 0.000000 -0.461504 3.841665 -39.722676 6.450765 5.820559 -95.892885 2.182870 4.561671 -51.127712 -0.000002 0.000000 -0.000001 9.104493 -0.043004 -1.865103 0.469685 4.966900 -39.799427 8.181093 5.368846 -113.503004 3.200475 5.218256 -63.022982 0.000003 -0.000002 0.000002 8.077792 -0.486884 -3.806303 -3.762463 9.063784 -45.253797 5.342521 5.829163 -85.005290 8.716893 5.103538 -119.369194 -0.000004 -0.000001 -0.000001 -8.207804 -6.751699 -1.599544 -25.200471 -11.317458 -27.381757 56.129357 -8.395377 -7.724625 -24.216198 -5.177016 18.988380 -0.044389 -0.000004 0.000001 0.000000 0.000000 0.000000 8.207799 -6.751688 -1.599544 -29.499922 8.635021 16.019848 56.693886 -4.548769 4.311572 -23.735018 -7.997048 -14.725922 -1.704811 0.000018 -0.000002 -0.000000 0.000002 0.000000 
-1.878068 89.838760 0.390633 -6.631083 -49.653744 -0.762609 0.000001 10.181561 0.131523 8.530996 4.801304 -2.399222 5.684953 0.966931 -2.382438 5.694356 0.966488 -2.365279 0.000001 16.740353 -2.049029 1.006290 10.597215 2.917611 0.000001 9.617861 1.684973 5.572829 28.469644 -6.722754 -0.000004 22.037369 7.501072 0.000000 -0.000000 0.000001 -4.569999 11.014886 -2.160844 5.700990 15.346337 -1.018434 -47.447627 36.475795 73.075866 0.000224 107.573628 -0.000180 -12.580815 18.489937 9.853628 -2.464794 -1.574002 2.681908 -7.341121 13.749646 7.412344 9.855776 -44.489110 -3.903159 -2.646267 -1.527816 1.527803 -0.115742 -14.513037 -28.973891 -1.994583 -1.151582 1.151589 -0.000003 -0.000006 -0.000000 -9.108294 -0.517888 2.259797 -0.124366 -2.384775 45.108868 4.500558 -4.654525 88.071178 1.723207 -3.618373 50.920126 0.000000 0.000003 -0.000001 -9.532516 0.000009 -0.000002 -0.761626 -2.932900 39.031065 5.133867 -4.632758 95.881670 1.739746 -3.631687 51.181350 -0.000002 0.000002 0.000002 -9.103605 -0.043118 -1.865106 0.154758 -4.068802 39.122678 6.509706 -4.273580 113.462863 2.549561 -4.153914 63.067330 0.000001 0.000000 -0.000000 -8.076674 -0.486746 -3.806297 -4.198887 -8.025506 44.637759 4.252905 -4.639639 85.014846 6.935979 -4.062626 119.322285 0.000001 -0.000000 0.000000 4.570403 11.014694 -2.160817 -0.161869 1.394335 -5.057546 -37.506085 10.551981 -50.389386 0.000001 -117.966287 0.000001 -0.979372 -6.045471 -9.963151 2.466110 -1.576203 2.681699 -6.141119 -11.690716 -6.761672 9.914075 42.595515 3.409808 2.647873 -1.528743 1.528736 -0.422783 8.108098 27.509115 1.998917 -1.154087 1.154082 -0.000001 -0.000003 0.000003 9.109303 -0.517993 2.259910 0.255267 3.378304 -45.814341 5.654093 5.847946 -88.067448 2.162102 4.544915 -50.866362 -0.000002 0.000001 -0.000001 9.533423 0.000027 0.000003 -0.461510 3.841670 -39.722679 6.450764 5.820559 -95.892885 2.182868 4.561669 -51.127712 -0.000001 -0.000002 -0.000003 9.104512 -0.042985 -1.865091 0.469684 4.966902 -39.799427 8.181088 5.368844 -113.503011 3.200477 5.218253 -63.022982 0.000001 -0.000000 0.000001 8.077813 -0.486869 -3.806294 -3.762468 9.063790 -45.253797 5.342521 5.829160 -85.005297 8.716896 5.103537 -119.369194 -0.000001 -0.000001 0.000000 -8.207806 -6.751714 -1.599542 -24.648232 -11.534411 -27.159475 54.586817 -7.040189 -7.556617 -23.788000 -4.672596 17.489750 -0.141906 0.000024 -0.000005 0.000000 0.000001 -0.000000 8.207802 -6.751699 -1.599548 -26.740898 8.105314 15.075862 54.024764 -1.755631 4.671234 -23.189052 -7.450067 -16.368731 -1.845935 -0.000001 0.000006 -0.000000 -0.000002 0.000000 
-2.099443 90.812737 0.090698 -7.961409 -50.692346 -1.170255 -0.000001 10.181551 0.131521 8.016728 3.084063 -2.561028 7.659535 0.763353 -3.125898 7.667242 0.766813 -3.109050 0.000002 16.740362 -2.049021 1.972432 8.205904 1.795744 0.000001 9.617860 1.684979 0.640529 30.817844 -5.707518 -0.000000 22.037399 7.501073 0.000000 -0.000000 0.000001 -4.569998 11.014880 -2.160841 6.940747 16.782166 0.967086 -46.879451 38.369038 65.750256 0.000171 110.619032 -0.000110 -14.435106 15.973125 12.318911 -2.464794 -1.574018 2.681905 -7.341120 13.749645 7.412341 9.855776 -44.489107 -3.903160 -2.646274 -1.527820 1.527830 -0.115748 -14.513040 -28.973891 -1.994598 -1.151585 1.151584 0.000004 -0.000005 -0.000000 -9.108298 -0.517877 2.259805 -0.124363 -2.384774 45.108868 4.500562 -4.654523 88.071178 1.723205 -3.618370 50.920133 0.000000 -0.000001 -0.000001 -9.532490 -0.000006 -0.000007 -0.761625 -2.932897 39.031058 5.133874 -4.632757 95.881670 1.739747 -3.631689 51.181357 0.000001 0.000000 -0.000000 -9.103593 -0.043126 -1.865107 0.154758 -4.068804 39.122675 6.509706 -4.273579 113.462863 2.549561 -4.153913 63.067337 -0.000000 -0.000001 0.000002 -8.076685 -0.486742 -3.806298 -4.198884 -8.025507 44.637762 4.252905 -4.639639 85.014846 6.935982 -4.062625 119.322285 0.000002 -0.000001 0.000001 4.570402 11.014700 -2.160815 -0.834620 0.440574 -1.563690 -33.125519 11.436821 -52.239452 0.000014 -121.347381 0.000030 -2.635977 -5.855846 -7.938958 2.466117 -1.576223 2.681706 -6.141114 -11.690716 -6.761673 9.914073 42.595512 3.409806 2.647881 -1.528747 1.528728 -0.422778 8.108100 27.509120 1.998924 -1.154093 1.154076 0.000002 0.000005 0.000007 9.109299 -0.518008 2.259897 0.255267 3.378302 -45.814341 5.654093 5.847947 -88.067448 2.162103 4.544915 -50.866362 -0.000001 -0.000000 -0.000000 9.533420 -0.000010 0.000004 -0.461505 3.841666 -39.722676 6.450768 5.820558 -95.892885 2.182868 4.561668 -51.127712 0.000003 0.000001 -0.000002 9.104524 -0.043008 -1.865094 0.469686 4.966899 -39.799427 8.181088 5.368844 -113.503004 3.200476 5.218257 -63.022982 0.000000 0.000001 -0.000000 8.077806 -0.486900 -3.806304 -3.762466 9.063789 -45.253797 5.342517 5.829161 -85.005297 8.716895 5.103538 -119.369194 0.000000 -0.000001 -0.000000 -8.207804 -6.751728 -1.599545 -23.244262 -11.106137 -27.600673 52.925620 -6.337966 -6.620175 -23.096085 -4.267427 16.383409 -0.180455 -0.000007 -0.000013 -0.000000 -0.000001 -0.000000 8.207797 -6.751713 -1.599547 -23.856326 8.579611 13.632591 50.843809 -0.157483 5.489897 -21.971137 -7.194465 -17.498752 -1.865328 0.000024 -0.000003 -0.000000 0.000000 0.000000 
